<svg width="24" height="24" viewBox="0 0 24 24" fill="none" xmlns="http://www.w3.org/2000/svg">
<g id="down-arrow 1">
<g id="Group">
<g id="Group_2">
<path id="Vector" d="M23.6164 6.09692L22.8302 5.3053C22.5828 5.05808 22.2536 4.92188 21.9018 4.92188C21.5502 4.92188 21.2207 5.05808 20.9732 5.3053L12.0054 14.2736L3.02715 5.29535C2.78012 5.04813 2.45056 4.91213 2.09894 4.91213C1.74733 4.91213 1.41757 5.04813 1.17035 5.29535L0.384003 6.08209C-0.128001 6.5937 -0.128001 7.42708 0.384003 7.93869L11.0737 18.6668C11.3207 18.9138 11.6499 19.0879 12.0046 19.0879H12.0087C12.3605 19.0879 12.6897 18.9136 12.9367 18.6668L23.6164 7.96776C23.8638 7.72074 23.9996 7.38161 24 7.03C24 6.67819 23.8638 6.34375 23.6164 6.09692Z" fill="#9D61FF"/>
</g>
</g>
</g>
</svg>
